<svg xmlns="http://www.w3.org/2000/svg" xmlns:xlink="http://www.w3.org/1999/xlink" xmlns:a="http://ns.adobe.com/AdobeSVGViewerExtensions/3.0/" x="0px" y="0px" width="210px" height="82.6px" viewBox="0 0 210 82.6" style="enable-background:new 0 0 210 82.6;" xml:space="preserve"> <style type="text/css"> .light-logo{fill:#ffffff;} </style> <defs> </defs> <path class="light-logo" d="M75.1,53.6c-0.1,0-0.2-0.1-0.2-0.1l-6.2-16.9l-6.2,16.9c0,0.1-0.1,0.1-0.2,0.1h-4.9c-0.1,0-0.2-0.1-0.2-0.1 L50,31.8c0-0.1,0-0.1,0-0.2c0-0.1,0.1-0.1,0.2-0.1h4c0.1,0,0.2,0.1,0.2,0.1l5.8,17.6l6.4-17.6c0-0.1,0.1-0.1,0.2-0.1h4.1 c0.1,0,0.2,0.1,0.2,0.1l6.4,17.6l5.8-17.6c0-0.1,0.1-0.1,0.2-0.1h4c0.1,0,0.1,0,0.2,0.1c0,0.1,0,0.1,0,0.2l-7.3,21.6 c0,0.1-0.1,0.1-0.2,0.1L75.1,53.6L75.1,53.6z"/> <path class="light-logo" d="M96.8,54c-1.9,0-3.7-0.4-5.2-1.1c-1.5-0.7-2.7-1.8-3.6-3.1c-0.9-1.3-1.3-2.9-1.3-4.6s0.4-3.3,1.2-4.6 c0.8-1.3,2-2.3,3.4-3.1c1.4-0.7,3.1-1.1,5-1.1c1.9,0,3.5,0.4,4.9,1.3s2.4,2,3.2,3.5c0.7,1.5,1.1,3.3,1.1,5.3c0,0.1-0.1,0.2-0.2,0.2 H91.2c0.1,0.5,0.3,0.9,0.6,1.3c0.5,0.8,1.3,1.5,2.3,2c1,0.5,2.2,0.7,3.5,0.7c1.2,0,2.5-0.2,3.8-0.6c1.3-0.4,2.4-0.9,3.4-1.6 c0,0,0.1,0,0.1,0c0,0,0.1,0,0.1,0c0.1,0,0.1,0.1,0.1,0.2v2.7c0,0.1,0,0.1-0.1,0.2c-1,0.8-2.3,1.4-3.7,1.9C99.8,53.7,98.3,54,96.8,54 L96.8,54z M101.1,43.5c-0.1-0.5-0.3-1-0.6-1.4c-0.4-0.7-1-1.3-1.7-1.7c-0.7-0.4-1.6-0.6-2.6-0.6c-1.1,0-2,0.2-2.8,0.6 c-0.8,0.4-1.4,1-1.8,1.8c-0.2,0.4-0.4,0.8-0.5,1.3H101.1L101.1,43.5z"/> <path class="light-logo" d="M108.4,31h3.8c0.1,0,0.2,0.1,0.2,0.2v22.2c0,0.1-0.1,0.2-0.2,0.2h-3.8c-0.1,0-0.2-0.1-0.2-0.2V31.2 C108.2,31.1,108.3,31,108.4,31z"/> <path class="light-logo" d="M124.7,54c-1.9,0-3.6-0.4-5.1-1.1c-1.5-0.7-2.6-1.8-3.4-3.1c-0.8-1.3-1.2-2.9-1.2-4.6c0-1.7,0.4-3.3,1.2-4.6 c0.8-1.3,2-2.4,3.4-3.1c1.5-0.7,3.2-1.1,5.1-1.1c1.7,0,3.2,0.3,4.6,0.9s2.5,1.4,3.4,2.5s1.4,2.3,1.6,3.7c0,0.1,0,0.1,0,0.2 c0,0-0.1,0.1-0.1,0.1h-3.8c-0.1,0-0.2-0.1-0.2-0.2c-0.3-1.2-0.9-2.1-1.9-2.8c-1-0.7-2.2-1-3.6-1c-1.1,0-2.1,0.2-2.9,0.7 c-0.8,0.4-1.5,1.1-1.9,1.9c-0.5,0.8-0.7,1.8-0.7,2.9c0,1.1,0.2,2.1,0.7,2.9c0.5,0.8,1.1,1.4,1.9,1.9c0.8,0.4,1.8,0.7,2.9,0.7 c1.4,0,2.6-0.3,3.6-1c1-0.7,1.6-1.6,1.8-2.7c0-0.1,0.1-0.2,0.2-0.2h3.8c0.1,0,0.1,0,0.1,0.1c0,0,0.1,0.1,0,0.2 c-0.2,1.4-0.7,2.6-1.6,3.7s-2,1.9-3.4,2.5C128,53.7,126.4,54,124.7,54L124.7,54z"/> <path class="light-logo" d="M146,54c-2,0-3.8-0.4-5.3-1.1c-1.5-0.7-2.7-1.8-3.6-3.1c-0.9-1.3-1.3-2.9-1.3-4.6c0-1.7,0.4-3.3,1.3-4.6 s2.1-2.3,3.6-3.1c1.5-0.7,3.3-1.1,5.3-1.1s3.8,0.4,5.3,1.1c1.5,0.7,2.7,1.8,3.6,3.1c0.9,1.3,1.3,2.9,1.3,4.6c0,1.7-0.4,3.3-1.3,4.6 c-0.9,1.3-2.1,2.4-3.6,3.1C149.8,53.6,148,54,146,54z M146,39.8c-1.2,0-2.3,0.2-3.2,0.7c-0.9,0.4-1.6,1.1-2.1,1.9 c-0.5,0.8-0.7,1.8-0.7,2.9s0.2,2.1,0.7,2.9c0.5,0.8,1.2,1.4,2.1,1.9c0.9,0.4,2,0.7,3.2,0.7s2.3-0.2,3.2-0.7c0.9-0.4,1.6-1.1,2-1.9 s0.7-1.8,0.7-2.9s-0.2-2.1-0.7-2.9c-0.5-0.8-1.2-1.4-2-1.9C148.3,40,147.3,39.8,146,39.8z"/> <path class="light-logo" d="M184.9,53.6c-0.1,0-0.2-0.1-0.2-0.2V45c0-1.7-0.3-2.9-1-3.8c-0.7-0.8-1.7-1.2-3-1.2c-0.9,0-1.8,0.2-2.4,0.7 c-0.7,0.5-1.2,1.1-1.6,1.9c-0.4,0.8-0.6,1.8-0.6,2.9v8c0,0.1-0.1,0.2-0.2,0.2h-3.8c-0.1,0-0.2-0.1-0.2-0.2V45c0-1.7-0.3-2.9-1-3.8 c-0.7-0.8-1.7-1.2-3-1.2c-0.9,0-1.8,0.2-2.4,0.7c-0.7,0.5-1.2,1.1-1.6,1.9c-0.4,0.8-0.6,1.8-0.6,2.9v8c0,0.1-0.1,0.2-0.2,0.2h-3.8 c-0.1,0-0.2-0.1-0.2-0.2v-11l-1-5.3c0-0.1,0-0.1,0-0.2c0,0,0.1-0.1,0.2-0.1h3.8c0.1,0,0.2,0.1,0.2,0.2l0.5,3.2 c0.7-1.2,1.6-2.2,2.6-2.8s2.3-1,3.6-1c1.5,0,2.8,0.3,3.8,0.9c1,0.6,1.8,1.6,2.4,2.7c0.1,0.1,0.1,0.3,0.2,0.5 c0.1-0.1,0.1-0.2,0.2-0.3c0.7-1.2,1.6-2.2,2.6-2.8c1.1-0.7,2.3-1,3.6-1c1.5,0,2.8,0.3,3.8,0.9c1.1,0.6,1.9,1.6,2.4,2.7 c0.5,1.2,0.8,2.6,0.8,4.2v9c0,0.1-0.1,0.2-0.2,0.2L184.9,53.6L184.9,53.6z"/> <path class="light-logo" d="M201.3,54c-1.9,0-3.7-0.4-5.2-1.1c-1.5-0.7-2.7-1.8-3.6-3.1c-0.9-1.3-1.3-2.9-1.3-4.6s0.4-3.3,1.2-4.6 c0.8-1.3,2-2.3,3.4-3.1c1.4-0.7,3.1-1.1,5-1.1s3.5,0.4,4.9,1.3c1.4,0.8,2.4,2,3.2,3.5c0.7,1.5,1.1,3.3,1.1,5.3 c0,0.1-0.1,0.2-0.2,0.2h-14.1c0.1,0.5,0.3,0.9,0.6,1.3c0.5,0.8,1.3,1.5,2.3,2c1,0.5,2.2,0.7,3.5,0.7c1.2,0,2.5-0.2,3.8-0.6 c1.3-0.4,2.4-0.9,3.4-1.6c0,0,0.1,0,0.1,0c0,0,0.1,0,0.1,0c0.1,0,0.1,0.1,0.1,0.2v2.7c0,0.1,0,0.1-0.1,0.2c-1,0.8-2.3,1.4-3.7,1.9 C204.3,53.7,202.8,54,201.3,54L201.3,54z M205.7,43.5c-0.1-0.5-0.3-1-0.6-1.4c-0.4-0.7-1-1.3-1.7-1.7c-0.7-0.4-1.6-0.6-2.6-0.6 c-1.1,0-2,0.2-2.8,0.6c-0.8,0.4-1.4,1-1.8,1.8c-0.2,0.4-0.4,0.8-0.5,1.3H205.7L205.7,43.5z"/> <path class="light-logo" d="M2,82.6V0l29.2,10.8v60.9L2,82.6L2,82.6z M3.6,2.2v78.2l26.2-9.7V11.9C29.7,11.9,3.6,2.2,3.6,2.2z"/> <polygon class="light-logo" points="70.8,71.7 32.8,71.7 32.8,10.9 70.8,10.9 70.8,21.7 69.3,21.7 69.3,12.4 34.3,12.4 34.3,70.2 69.3,70.2 69.3,60.7 70.8,60.7 "/> <rect class="light-logo" width="1.5" height="82.6"/> <path class="light-logo" d="M4.4,3.6V79l24.4-8.9V12.4C28.9,12.4,4.4,3.6,4.4,3.6z M8,32.3c0,0.3-0.2,0.6-0.4,0.6l-0.3,0 c-0.2,0-0.4-0.3-0.4-0.7v-3c0-0.4,0.2-0.6,0.4-0.6l0.3,0C7.8,28.7,8,29,8,29.3C8,29.3,8,32.3,8,32.3z M19.4,52.9 c0.4,0,0.7-0.6,0.7-1.2l4.5-0.5c0,0.6,0.3,1,0.6,1v12.2c-0.3,0.1-0.6,0.6-0.6,1.2l-4.5,1.3c0-0.6-0.3-1-0.7-0.9V52.9z M19.4,34.8 c0.4,0,0.7-0.5,0.7-1.1l4.5,0.4c0,0.6,0.3,1.1,0.6,1.1v12.2c-0.3,0-0.6,0.5-0.6,1.1l-4.5,0.4c0-0.6-0.3-1.1-0.7-1.1V34.8z M19.4,16.6c0.4,0.1,0.7-0.3,0.7-0.9l4.5,1.3c0,0.6,0.3,1.1,0.6,1.2v12.2c-0.3,0-0.6,0.4-0.6,1l-4.5-0.5c0-0.6-0.3-1.2-0.7-1.2V16.6 L19.4,16.6z M17.5,31.8c0-0.6,0.3-1.1,0.7-1.1c0.4,0,0.7,0.6,0.7,1.2c0,0.6-0.3,1.1-0.7,1.1C17.9,33,17.5,32.5,17.5,31.8L17.5,31.8z M10.1,54.1c0.4-0.1,0.8-0.7,0.8-1.3l5.4-0.6c0,0.7,0.3,1.1,0.7,1.1v13.4c-0.4,0.1-0.7,0.7-0.7,1.4l-5.4,1.6c0-0.7-0.4-1.1-0.8-1 V54.1z M10.1,34.1c0.4,0,0.8-0.5,0.8-1.2l5.4,0.5c0,0.7,0.3,1.2,0.7,1.2V48c-0.4,0-0.7,0.6-0.7,1.2l-5.4,0.5c0-0.7-0.4-1.2-0.8-1.2 V34.1L10.1,34.1z M10.1,14c0.4,0.1,0.8-0.3,0.8-1l5.4,1.6c0,0.7,0.3,1.3,0.7,1.4v13.4c-0.4-0.1-0.7,0.4-0.7,1.1l-5.4-0.6 c0-0.7-0.4-1.3-0.8-1.3C10.1,28.4,10.1,14,10.1,14z M6.8,46.3c0-0.4,0.2-0.7,0.4-0.7h0.3c0.2,0,0.4,0.3,0.4,0.6v3 C8,49.6,7.8,50,7.6,50l-0.3,0c-0.2,0-0.4-0.3-0.4-0.6V46.3z M6.3,41.3c0-1,0.5-1.7,1.2-1.7c0.6,0,1.1,0.8,1.1,1.7S8,43,7.4,43 C6.8,43,6.3,42.3,6.3,41.3z"/> </svg>